# xmcd
#
# Track frame offsets:
#	150
#	12238
#	24693
#	38134
#	51944
#	62115
#	76067
#	91689
#	114792
#	142537
#	158311
#	186886
#	204517
#	218341
#	232276
#	245483
#	257514
#
# Disc length: 3614
#
# Revision: 1
# Processed by: cddbd v1.5.1PL0 Copyright (c) Steve Scherf et al.
# Submitted via: CDnGo 1.95
# Normalized: r0:DSETVAR1
#
DISCID=cb0e1c11
DTITLE=Various Artist - The Blues Box CD 1
DYEAR=1998
DGENRE=Blues
TTITLE0=Muddy Waters - You shock me
TTITLE1=Bo Diddley - I'm a man
TTITLE2=John Lee Hooker - One bourbon, one scotch, one beer
TTITLE3=Howlin Wolf - Smokestack Lightin'
TTITLE4=Little Walter - Everything gonna be alright
TTITLE5=Koko Taylor - I got what it takes
TTITLE6=Louisiana Red - Lightnin' Bug
TTITLE7=Magic Slim - Cummins prison farm
TTITLE8=Willie Dixon - Back door man
TTITLE9=Muddy Waters - I cant be satisfied
TTITLE10=Buddy Guy - First time I met the blues
TTITLE11=Howlin Wolf - The red rooster
TTITLE12=Willie Dixon - Walking the blues
TTITLE13=Lightnin Hopkins - War is starting again
TTITLE14=Sonny Boy Williamson - Bye bye bird
TTITLE15=Bukka White - Parchman farm blues
TTITLE16=Blind Willie Johnson - Lord, I just cant keep from cryin
EXTD=
EXTT0=
EXTT1=
EXTT2=
EXTT3=
EXTT4=
EXTT5=
EXTT6=
EXTT7=
EXTT8=
EXTT9=
EXTT10=
EXTT11=
EXTT12=
EXTT13=
EXTT14=
EXTT15=
EXTT16=
PLAYORDER=
